# xmcd
#
# Track frame offsets:
#	150
#	1432
#	24237
#	44145
#	89132
#	105925
#	138610
#	165100
#	187420
#	205757
#	218275
#	221650
#	227512
#	252025
#	268432
#	282140
#
# Disc length: 4060
#
# Revision: 2
# Processed by: cddbd v1.5.1PL0 Copyright (c) Steve Scherf et al.
# Submitted via: EasyCDDAExtractor 6.2.0.3
# Normalized: r1:DSETVAR1
#
DISCID=e30fda10
DTITLE=Various Artist - Sound of Philadelphia
DYEAR=1900
DGENRE=Soul
TTITLE0=Harold Melvin and The Bluenotes - Introduction
TTITLE1=Harold Melvin and The Bluenotes - The Love I Lost
TTITLE2=Harold Melvin and The Bluenotes - If You Don't Know Me By Now
TTITLE3=Harold Melvin and The Bluenotes ft. Billy Paul - Hope We'll Be Together Soon
TTITLE4=Harold Melvin and The Bluenotes ft. Billy Paul - Don't Leave Me This Way
TTITLE5=Harold Melvin and The Bluenotes ft. Billy Paul - Wake Up Everybody
TTITLE6=Harold Melvin and The Bluenotes ft. Billy Paul - Me and Mrs Jones
TTITLE7=The Three Degrees Orchestra - T.S.O.P.
TTITLE8=The Three Degrees - My Simple Heart
TTITLE9=The Three Degrees - Gee Baby
TTITLE10=The Three Degrees - Take Good Care Of Yourself
TTITLE11=The Three Degrees - The Runner
TTITLE12=The Three Degrees - Woman In Love
TTITLE13=The Three Degrees - Dirty Old Man
TTITLE14=The Three Degrees - When Will I See You Again
TTITLE15=Ensemble - Love Train
EXTD=
EXTT0=
EXTT1=
EXTT2=
EXTT3=
EXTT4=
EXTT5=
EXTT6=
EXTT7=
EXTT8=
EXTT9=
EXTT10=Take Good Care Of Yourself
EXTT11=
EXTT12=
EXTT13=
EXTT14=
EXTT15=
PLAYORDER=
